{
    "asset" : {
        "generator" : "Khronos glTF Blender I/O v1.0.5",
        "version" : "2.0"
    },
    "scene" : 0,
    "scenes" : [
        {
            "name" : "Scene",
            "nodes" : [
                0
            ]
        }
    ],
    "nodes" : [
        {
            "mesh" : 0,
            "name" : "Win Alenka.004",
            "rotation" : [
                0.7071068286895752,
                0,
                0,
                0.7071067094802856
            ]
        }
    ],
    "materials" : [
        {
            "doubleSided" : true,
            "name" : "head",
            "pbrMetallicRoughness" : {
                "baseColorFactor" : [
                    0.8000000715255737,
                    0.6449010372161865,
                    0.41211891174316406,
                    1
                ],
                "metallicFactor" : 0,
                "roughnessFactor" : 0.5
            }
        },
        {
            "doubleSided" : true,
            "name" : "eye.001",
            "pbrMetallicRoughness" : {
                "baseColorFactor" : [
                    0.800000011920929,
                    0.800000011920929,
                    0.800000011920929,
                    1
                ],
                "metallicFactor" : 0,
                "roughnessFactor" : 1
            }
        }
    ],
    "meshes" : [
        {
            "name" : "Win Alenka.004",
            "primitives" : [
                {
                    "attributes" : {
                        "POSITION" : 0,
                        "NORMAL" : 1,
                        "TEXCOORD_0" : 2
                    },
                    "indices" : 3,
                    "material" : 0
                },
                {
                    "attributes" : {
                        "POSITION" : 4,
                        "NORMAL" : 5,
                        "TEXCOORD_0" : 6
                    },
                    "indices" : 7,
                    "material" : 1
                }
            ]
        }
    ],
    "accessors" : [
        {
            "bufferView" : 0,
            "componentType" : 5126,
            "count" : 20382,
            "max" : [
                7.783708572387695,
                5.8918633460998535,
                9.264513969421387
            ],
            "min" : [
                -7.746239185333252,
                -14.548873901367188,
                -11.691139221191406
            ],
            "type" : "VEC3"
        },
        {
            "bufferView" : 1,
            "componentType" : 5126,
            "count" : 20382,
            "type" : "VEC3"
        },
        {
            "bufferView" : 2,
            "componentType" : 5126,
            "count" : 20382,
            "type" : "VEC2"
        },
        {
            "bufferView" : 3,
            "componentType" : 5123,
            "count" : 121389,
            "type" : "SCALAR"
        },
        {
            "bufferView" : 4,
            "componentType" : 5126,
            "count" : 16270,
            "max" : [
                5.139334201812744,
                3.249305248260498,
                0.10780048370361328
            ],
            "min" : [
                -5.208393573760986,
                -0.7647833824157715,
                -3.7716445922851562
            ],
            "type" : "VEC3"
        },
        {
            "bufferView" : 5,
            "componentType" : 5126,
            "count" : 16270,
            "type" : "VEC3"
        },
        {
            "bufferView" : 6,
            "componentType" : 5126,
            "count" : 16270,
            "type" : "VEC2"
        },
        {
            "bufferView" : 7,
            "componentType" : 5123,
            "count" : 96768,
            "type" : "SCALAR"
        }
    ],
    "bufferViews" : [
        {
            "buffer" : 0,
            "byteLength" : 244584,
            "byteOffset" : 0
        },
        {
            "buffer" : 0,
            "byteLength" : 244584,
            "byteOffset" : 244584
        },
        {
            "buffer" : 0,
            "byteLength" : 163056,
            "byteOffset" : 489168
        },
        {
            "buffer" : 0,
            "byteLength" : 242778,
            "byteOffset" : 652224
        },
        {
            "buffer" : 0,
            "byteLength" : 195240,
            "byteOffset" : 895004
        },
        {
            "buffer" : 0,
            "byteLength" : 195240,
            "byteOffset" : 1090244
        },
        {
            "buffer" : 0,
            "byteLength" : 130160,
            "byteOffset" : 1285484
        },
        {
            "buffer" : 0,
            "byteLength" : 193536,
            "byteOffset" : 1415644
        }
    ],
    "buffers" : [
        {
            "byteLength" : 1609180,
            "uri" : "data:application/octet-stream;base64,"
        }
    ]
}
