{
    "asset" : {
        "generator" : "Khronos glTF Blender I/O v1.0.5",
        "version" : "2.0"
    },
    "scene" : 0,
    "scenes" : [
        {
            "name" : "Scene",
            "nodes" : [
                24
            ]
        }
    ],
    "nodes" : [
        {
            "name" : "Bone.001",
            "rotation" : [
                0.6358834505081177,
                0,
                0,
                0.7717851400375366
            ],
            "translation" : [
                0.15938517451286316,
                0.4464617967605591,
                -0.7488037347793579
            ]
        },
        {
            "name" : "Bone.002",
            "rotation" : [
                0.6358833909034729,
                0,
                0,
                0.7717851400375366
            ],
            "translation" : [
                0.2914290428161621,
                0.3532421588897705,
                -0.7502495050430298
            ]
        },
        {
            "name" : "Bone.003",
            "rotation" : [
                0.6358833909034729,
                0,
                0,
                0.7717851400375366
            ],
            "translation" : [
                0.43058300018310547,
                0.3163825273513794,
                -0.6442872285842896
            ]
        },
        {
            "name" : "Bone.004",
            "rotation" : [
                0.6358833909034729,
                0,
                0,
                0.7717851400375366
            ],
            "translation" : [
                0.15024366974830627,
                0.36436301469802856,
                -0.5410597324371338
            ]
        },
        {
            "name" : "Bone.005",
            "rotation" : [
                0.6358832716941833,
                0,
                0,
                0.7717852592468262
            ],
            "translation" : [
                0.269083172082901,
                0.3842693567276001,
                -0.5957666635513306
            ]
        },
        {
            "name" : "Bone.006",
            "rotation" : [
                0.6358832120895386,
                0,
                0,
                0.771785318851471
            ],
            "translation" : [
                0.3899541199207306,
                0.32383280992507935,
                -0.5195426344871521
            ]
        },
        {
            "name" : "Bone.007",
            "rotation" : [
                0.6358832716941833,
                0,
                0,
                0.7717852592468262
            ],
            "translation" : [
                0.27111461758613586,
                0.40598729252815247,
                -0.49468404054641724
            ]
        },
        {
            "name" : "Bone.008",
            "rotation" : [
                0.6270034313201904,
                0,
                0,
                0.7790166139602661
            ],
            "translation" : [
                0.07516155391931534,
                0.6994332671165466,
                -0.16020940244197845
            ]
        },
        {
            "name" : "Bone.009",
            "rotation" : [
                0.6270031332969666,
                0,
                0,
                0.7790167331695557
            ],
            "translation" : [
                0.19509804248809814,
                0.6356292366981506,
                -0.07381350547075272
            ]
        },
        {
            "name" : "Bone.010",
            "rotation" : [
                -0.114845409989357,
                0,
                0,
                0.9933834075927734
            ],
            "translation" : [
                0.07635743916034698,
                -0.13640642166137695,
                -0.5222311019897461
            ]
        },
        {
            "name" : "Bone.021",
            "rotation" : [
                -0.11484556645154953,
                0,
                0,
                0.9933833479881287
            ],
            "translation" : [
                -0.08378545194864273,
                -0.1364063024520874,
                -0.5222311615943909
            ]
        },
        {
            "children" : [
                9,
                10
            ],
            "name" : "Bone.011",
            "rotation" : [
                0.7203120589256287,
                0,
                0,
                0.6936502456665039
            ],
            "translation" : [
                0,
                0.19223321974277496,
                0.10457051545381546
            ]
        },
        {
            "name" : "Bone.012",
            "rotation" : [
                0.6358834505081177,
                0,
                0,
                0.7717851400375366
            ],
            "translation" : [
                -0.16042909026145935,
                0.4464617967605591,
                -0.7488037347793579
            ]
        },
        {
            "name" : "Bone.013",
            "rotation" : [
                0.6358833909034729,
                0,
                0,
                0.7717851400375366
            ],
            "translation" : [
                -0.2924729585647583,
                0.3532421588897705,
                -0.7502495050430298
            ]
        },
        {
            "name" : "Bone.014",
            "rotation" : [
                0.6358833909034729,
                0,
                0,
                0.7717851400375366
            ],
            "translation" : [
                -0.43162691593170166,
                0.3163825273513794,
                -0.6442872285842896
            ]
        },
        {
            "name" : "Bone.015",
            "rotation" : [
                0.6358833909034729,
                0,
                0,
                0.7717851400375366
            ],
            "translation" : [
                -0.15128758549690247,
                0.36436301469802856,
                -0.5410597324371338
            ]
        },
        {
            "name" : "Bone.016",
            "rotation" : [
                0.6358832716941833,
                0,
                0,
                0.7717852592468262
            ],
            "translation" : [
                -0.2701270878314972,
                0.3842693567276001,
                -0.5957666635513306
            ]
        },
        {
            "name" : "Bone.017",
            "rotation" : [
                0.6358832120895386,
                0,
                0,
                0.771785318851471
            ],
            "translation" : [
                -0.3909980356693268,
                0.32383280992507935,
                -0.5195426344871521
            ]
        },
        {
            "name" : "Bone.018",
            "rotation" : [
                0.6358832716941833,
                0,
                0,
                0.7717852592468262
            ],
            "translation" : [
                -0.27215853333473206,
                0.40598729252815247,
                -0.49468404054641724
            ]
        },
        {
            "name" : "Bone.019",
            "rotation" : [
                0.6270034313201904,
                0,
                0,
                0.7790166139602661
            ],
            "translation" : [
                -0.07620546221733093,
                0.6994332671165466,
                -0.16020940244197845
            ]
        },
        {
            "name" : "Bone.020",
            "rotation" : [
                0.6270031332969666,
                0,
                0,
                0.7790167331695557
            ],
            "translation" : [
                -0.19614195823669434,
                0.6356292366981506,
                -0.07381350547075272
            ]
        },
        {
            "children" : [
                0,
                1,
                2,
                3,
                4,
                5,
                6,
                7,
                8,
                11,
                12,
                13,
                14,
                15,
                16,
                17,
                18,
                19,
                20
            ],
            "name" : "Bone",
            "rotation" : [
                0.19837388396263123,
                0,
                0,
                0.9801264405250549
            ]
        },
        {
            "mesh" : 0,
            "name" : "Win Alenka.000",
            "rotation" : [
                0.7071068286895752,
                0,
                0,
                0.7071067094802856
            ],
            "scale" : [
                0.07817939668893814,
                0.07817939668893814,
                0.07817939668893814
            ],
            "translation" : [
                0,
                0.7891512513160706,
                -0.1567014455795288
            ]
        },
        {
            "mesh" : 1,
            "name" : "Win Alenka.004",
            "rotation" : [
                0.7071068286895752,
                0,
                0,
                0.7071067094802856
            ],
            "scale" : [
                0.07817939668893814,
                0.07817939668893814,
                0.07817939668893814
            ],
            "translation" : [
                0,
                0.38669854402542114,
                -0.15670138597488403
            ]
        },
        {
            "children" : [
                21,
                22,
                23
            ],
            "name" : "Armature",
            "rotation" : [
                0.7071068286895752,
                0,
                0,
                0.7071067690849304
            ],
            "scale" : [
                12.791093826293945,
                12.791095733642578,
                12.791095733642578
            ],
            "translation" : [
                0,
                -2.0043816566467285,
                -4.946298122406006
            ]
        }
    ],
    "materials" : [
        {
            "doubleSided" : true,
            "name" : "head",
            "pbrMetallicRoughness" : {
                "baseColorFactor" : [
                    1,
                    1,
                    1,
                    1
                ],
                "metallicFactor" : 0,
                "roughnessFactor" : 0.5
            }
        }
    ],
    "meshes" : [
        {
            "extras" : {
                "targetNames" : [
                    "Armature"
                ]
            },
            "name" : "Win Alenka.000",
            "primitives" : [
                {
                    "attributes" : {
                        "POSITION" : 0,
                        "NORMAL" : 1,
                        "TEXCOORD_0" : 2
                    },
                    "indices" : 3,
                    "material" : 0,
                    "targets" : [
                        {
                            "POSITION" : 4,
                            "NORMAL" : 5
                        }
                    ]
                }
            ],
            "weights" : [
                0
            ]
        },
        {
            "extras" : {
                "targetNames" : [
                    "Armature"
                ]
            },
            "name" : "Win Alenka.004",
            "primitives" : [
                {
                    "attributes" : {
                        "POSITION" : 6,
                        "NORMAL" : 7,
                        "TEXCOORD_0" : 8
                    },
                    "indices" : 9,
                    "material" : 0,
                    "targets" : [
                        {
                            "POSITION" : 10,
                            "NORMAL" : 11
                        }
                    ]
                }
            ],
            "weights" : [
                0
            ]
        }
    ],
    "accessors" : [
        {
            "bufferView" : 0,
            "componentType" : 5126,
            "count" : 20,
            "max" : [
                7.346663951873779,
                8.515636444091797,
                14.095599174499512
            ],
            "min" : [
                -7.346663951873779,
                -12.274513244628906,
                14.09559154510498
            ],
            "type" : "VEC3"
        },
        {
            "bufferView" : 1,
            "componentType" : 5126,
            "count" : 20,
            "type" : "VEC3"
        },
        {
            "bufferView" : 2,
            "componentType" : 5126,
            "count" : 20,
            "type" : "VEC2"
        },
        {
            "bufferView" : 3,
            "componentType" : 5123,
            "count" : 54,
            "type" : "SCALAR"
        },
        {
            "bufferView" : 4,
            "componentType" : 5126,
            "count" : 20,
            "max" : [
                6.8965678215026855,
                11.792609214782715,
                4.738284111022949
            ],
            "min" : [
                -6.757213592529297,
                -7.021981716156006,
                -8.947789192199707
            ],
            "type" : "VEC3"
        },
        {
            "bufferView" : 5,
            "componentType" : 5126,
            "count" : 20,
            "type" : "VEC3"
        },
        {
            "bufferView" : 6,
            "componentType" : 5126,
            "count" : 25303,
            "max" : [
                7.833517074584961,
                8.53550910949707,
                8.947783470153809
            ],
            "min" : [
                -7.796402931213379,
                -12.512436866760254,
                -6.354116439819336
            ],
            "type" : "VEC3"
        },
        {
            "bufferView" : 7,
            "componentType" : 5126,
            "count" : 25303,
            "type" : "VEC3"
        },
        {
            "bufferView" : 8,
            "componentType" : 5126,
            "count" : 25303,
            "type" : "VEC2"
        },
        {
            "bufferView" : 9,
            "componentType" : 5123,
            "count" : 177864,
            "type" : "SCALAR"
        },
        {
            "bufferView" : 10,
            "componentType" : 5126,
            "count" : 25303,
            "max" : [
                9.5367431640625e-07,
                1.6982550621032715,
                1.0749948024749756
            ],
            "min" : [
                -0.04082846641540527,
                -0.40708160400390625,
                -0.05597686767578125
            ],
            "type" : "VEC3"
        },
        {
            "bufferView" : 11,
            "componentType" : 5126,
            "count" : 25303,
            "type" : "VEC3"
        }
    ],
    "bufferViews" : [
        {
            "buffer" : 0,
            "byteLength" : 240,
            "byteOffset" : 0
        },
        {
            "buffer" : 0,
            "byteLength" : 240,
            "byteOffset" : 240
        },
        {
            "buffer" : 0,
            "byteLength" : 160,
            "byteOffset" : 480
        },
        {
            "buffer" : 0,
            "byteLength" : 108,
            "byteOffset" : 640
        },
        {
            "buffer" : 0,
            "byteLength" : 240,
            "byteOffset" : 748
        },
        {
            "buffer" : 0,
            "byteLength" : 240,
            "byteOffset" : 988
        },
        {
            "buffer" : 0,
            "byteLength" : 303636,
            "byteOffset" : 1228
        },
        {
            "buffer" : 0,
            "byteLength" : 303636,
            "byteOffset" : 304864
        },
        {
            "buffer" : 0,
            "byteLength" : 202424,
            "byteOffset" : 608500
        },
        {
            "buffer" : 0,
            "byteLength" : 355728,
            "byteOffset" : 810924
        },
        {
            "buffer" : 0,
            "byteLength" : 303636,
            "byteOffset" : 1166652
        },
        {
            "buffer" : 0,
            "byteLength" : 303636,
            "byteOffset" : 1470288
        }
    ],
    "buffers" : [
        {
            "byteLength" : 1773924,
            "uri" : "data:application/octet-stream;base64,"
        }
    ]
}
