{
    "asset" : {
        "generator" : "Khronos glTF Blender I/O v1.0.5",
        "version" : "2.0"
    },
    "scene" : 0,
    "scenes" : [
        {
            "name" : "Scene",
            "nodes" : [
                23
            ]
        }
    ],
    "nodes" : [
        {
            "mesh" : 0,
            "name" : "Win Alenka.004",
            "rotation" : [
                0.7071068286895752,
                0,
                0,
                0.7071067094802856
            ],
            "translation" : [
                0,
                1.989558219909668,
                0
            ]
        },
        {
            "name" : "Bone.001",
            "rotation" : [
                0.5971174836158752,
                8.317711944982875e-06,
                6.3467373365710955e-06,
                0.8021537661552429
            ],
            "scale" : [
                1,
                0.9999998807907104,
                0.9999999403953552
            ],
            "translation" : [
                1.739251971244812,
                9.473368644714355,
                4.990838527679443
            ]
        },
        {
            "name" : "Bone.002",
            "rotation" : [
                0.5971174836158752,
                9.083119039132725e-06,
                6.9165021159278695e-06,
                0.8021537661552429
            ],
            "scale" : [
                1,
                0.9999998807907104,
                0.9999999403953552
            ],
            "translation" : [
                3.6538922786712646,
                10.128063201904297,
                4.782875061035156
            ]
        },
        {
            "name" : "Bone.003",
            "rotation" : [
                0.5971174836158752,
                1.0447361091792118e-05,
                7.880335033405572e-06,
                0.8021538257598877
            ],
            "translation" : [
                5.320067882537842,
                9.367008209228516,
                3.6904609203338623
            ]
        },
        {
            "name" : "Bone.004",
            "rotation" : [
                0.5971176624298096,
                1.1009016816387884e-05,
                8.324279406224377e-06,
                0.8021536469459534
            ],
            "scale" : [
                1,
                1,
                0.9999999403953552
            ],
            "translation" : [
                1.7392520904541016,
                7.044270992279053,
                4.888332366943359
            ]
        },
        {
            "name" : "Bone.005",
            "rotation" : [
                0.5971174836158752,
                1.1595463547564577e-05,
                8.73497538123047e-06,
                0.8021537661552429
            ],
            "scale" : [
                1,
                0.9999998807907104,
                0.9999999403953552
            ],
            "translation" : [
                3.4931209087371826,
                7.938723087310791,
                5.0489325523376465
            ]
        },
        {
            "name" : "Bone.006",
            "rotation" : [
                0.59711754322052,
                1.2169520232419018e-05,
                9.162296919384971e-06,
                0.8021538257598877
            ],
            "scale" : [
                1,
                0.9999999403953552,
                0.9999999403953552
            ],
            "translation" : [
                5.407761573791504,
                6.758627891540527,
                3.8442623615264893
            ]
        },
        {
            "name" : "Bone.007",
            "rotation" : [
                0.5971176624298096,
                1.2623125257960055e-05,
                9.551657058182172e-06,
                0.8021537065505981
            ],
            "translation" : [
                3.5661990642547607,
                6.265519618988037,
                5.043692588806152
            ]
        },
        {
            "name" : "Bone.008",
            "rotation" : [
                0.59711754322052,
                1.406446608598344e-05,
                1.0611654943204485e-05,
                0.8021538257598877
            ],
            "scale" : [
                1,
                0.9999999403953552,
                0.9999999403953552
            ],
            "translation" : [
                0.7307769656181335,
                1.4070091247558594,
                8.335210800170898
            ]
        },
        {
            "name" : "Bone.009",
            "rotation" : [
                0.59711754322052,
                1.3101514014124405e-05,
                9.907765161187854e-06,
                0.8021538257598877
            ],
            "scale" : [
                1,
                0.9999999403953552,
                0.9999999403953552
            ],
            "translation" : [
                2.4554147720336914,
                0.6798762679100037,
                7.784088134765625
            ]
        },
        {
            "name" : "Bone.012",
            "rotation" : [
                0.5971174836158752,
                9.752851838129573e-06,
                7.415046184178209e-06,
                0.8021537661552429
            ],
            "scale" : [
                1,
                0.9999998807907104,
                0.9999999403953552
            ],
            "translation" : [
                -1.729198694229126,
                9.473368644714355,
                4.990837574005127
            ]
        },
        {
            "name" : "Bone.013",
            "rotation" : [
                0.5971174836158752,
                1.0422585546621121e-05,
                7.9135907071759e-06,
                0.8021537661552429
            ],
            "scale" : [
                1,
                0.9999998807907104,
                0.9999999403953552
            ],
            "translation" : [
                -3.643839120864868,
                10.128064155578613,
                4.782872676849365
            ]
        },
        {
            "name" : "Bone.014",
            "rotation" : [
                0.5971174836158752,
                1.1595472642511595e-05,
                8.73498083819868e-06,
                0.8021538257598877
            ],
            "translation" : [
                -5.310014247894287,
                9.367009162902832,
                3.690457820892334
            ]
        },
        {
            "name" : "Bone.015",
            "rotation" : [
                0.5971176624298096,
                1.215712745761266e-05,
                9.178924301522784e-06,
                0.8021536469459534
            ],
            "scale" : [
                1,
                1,
                0.9999999403953552
            ],
            "translation" : [
                -1.729198694229126,
                7.044271469116211,
                4.888331413269043
            ]
        },
        {
            "name" : "Bone.016",
            "rotation" : [
                0.59711754322052,
                1.2647901712625753e-05,
                9.518401384411845e-06,
                0.8021538257598877
            ],
            "scale" : [
                1,
                0.9999999403953552,
                0.9999999403953552
            ],
            "translation" : [
                -3.483067750930786,
                7.938722610473633,
                5.048931121826172
            ]
        },
        {
            "name" : "Bone.017",
            "rotation" : [
                0.5971174836158752,
                1.312627864535898e-05,
                9.874502211459912e-06,
                0.8021537661552429
            ],
            "scale" : [
                1,
                0.9999998807907104,
                0.9999999403953552
            ],
            "translation" : [
                -5.397707939147949,
                6.758627891540527,
                3.84425950050354
            ]
        },
        {
            "name" : "Bone.018",
            "rotation" : [
                0.5971176624298096,
                1.357988548988942e-05,
                1.0263862350257114e-05,
                0.8021537065505981
            ],
            "translation" : [
                -3.5561459064483643,
                6.265519142150879,
                5.0436906814575195
            ]
        },
        {
            "name" : "Bone.019",
            "rotation" : [
                0.59711754322052,
                1.502122813690221e-05,
                1.1323861144774128e-05,
                0.8021538257598877
            ],
            "scale" : [
                1,
                0.9999999403953552,
                0.9999999403953552
            ],
            "translation" : [
                -0.7207251191139221,
                1.407009243965149,
                8.335210800170898
            ]
        },
        {
            "name" : "Bone.020",
            "rotation" : [
                0.59711754322052,
                1.4058273336559068e-05,
                1.0619968634273391e-05,
                0.8021538257598877
            ],
            "scale" : [
                1,
                0.9999999403953552,
                0.9999999403953552
            ],
            "translation" : [
                -2.4453630447387695,
                0.6798766255378723,
                7.784087181091309
            ]
        },
        {
            "children" : [
                1,
                2,
                3,
                4,
                5,
                6,
                7,
                8,
                9,
                10,
                11,
                12,
                13,
                14,
                15,
                16,
                17,
                18
            ],
            "name" : "Bone",
            "rotation" : [
                0.15317930281162262,
                1.1780243625025832e-07,
                1.826039763841436e-08,
                0.9881983995437622
            ],
            "scale" : [
                1,
                1,
                0.9999999403953552
            ],
            "translation" : [
                1.197846253678009e-15,
                -1.6915767192840576,
                -5.061244487762451
            ]
        },
        {
            "name" : "Bone.010",
            "rotation" : [
                -0.21940825879573822,
                1.838763819250744e-05,
                -4.337058271630667e-06,
                0.9756331443786621
            ],
            "translation" : [
                0.8623213171958923,
                6.102887153625488,
                -2.1350550651550293
            ]
        },
        {
            "name" : "Bone.021",
            "rotation" : [
                -0.21940825879573822,
                1.931857696035877e-05,
                -4.546415766526479e-06,
                0.9756331443786621
            ],
            "translation" : [
                -0.8522613644599915,
                6.102887153625488,
                -2.135056495666504
            ]
        },
        {
            "children" : [
                20,
                21
            ],
            "name" : "Bone.011",
            "rotation" : [
                0.8494255542755127,
                2.516313202249876e-07,
                4.0503809373149124e-07,
                0.5277085900306702
            ],
            "scale" : [
                1,
                1,
                1.000001072883606
            ],
            "translation" : [
                2.7402553459037002e-16,
                -3.545788288116455,
                -3.3422327041625977
            ]
        },
        {
            "children" : [
                0,
                19,
                22
            ],
            "name" : "Armature"
        }
    ],
    "materials" : [
        {
            "doubleSided" : true,
            "name" : "head",
            "pbrMetallicRoughness" : {
                "baseColorFactor" : [
                    0.419258713722229,
                    0.419258713722229,
                    0.419258713722229,
                    1
                ],
                "metallicFactor" : 0,
                "roughnessFactor" : 0.08727271854877472
            }
        },
        {
            "doubleSided" : true,
            "name" : "eyes",
            "pbrMetallicRoughness" : {
                "baseColorFactor" : [
                    0,
                    0,
                    0,
                    1
                ],
                "metallicFactor" : 0,
                "roughnessFactor" : 1
            }
        }
    ],
    "meshes" : [
        {
            "extras" : {
                "targetNames" : [
                    "Armature",
                    "Armature.001"
                ]
            },
            "name" : "Win Alenka.004",
            "primitives" : [
                {
                    "attributes" : {
                        "POSITION" : 0,
                        "NORMAL" : 1,
                        "TEXCOORD_0" : 2,
                        "JOINTS_0" : 3,
                        "WEIGHTS_0" : 4
                    },
                    "indices" : 5,
                    "material" : 0,
                    "targets" : [
                        {
                            "POSITION" : 6,
                            "NORMAL" : 7
                        },
                        {
                            "POSITION" : 8,
                            "NORMAL" : 9
                        }
                    ]
                },
                {
                    "attributes" : {
                        "POSITION" : 10,
                        "NORMAL" : 11,
                        "TEXCOORD_0" : 12,
                        "JOINTS_0" : 13,
                        "WEIGHTS_0" : 14
                    },
                    "indices" : 15,
                    "material" : 1,
                    "targets" : [
                        {
                            "POSITION" : 16,
                            "NORMAL" : 17
                        },
                        {
                            "POSITION" : 18,
                            "NORMAL" : 19
                        }
                    ]
                }
            ],
            "weights" : [
                0,
                0
            ]
        }
    ],
    "accessors" : [
        {
            "bufferView" : 0,
            "componentType" : 5126,
            "count" : 25375,
            "max" : [
                7.747664928436279,
                5.875492095947266,
                9.209749221801758
            ],
            "min" : [
                -7.704638957977295,
                -14.479904174804688,
                -11.706169128417969
            ],
            "type" : "VEC3"
        },
        {
            "bufferView" : 1,
            "componentType" : 5126,
            "count" : 25375,
            "type" : "VEC3"
        },
        {
            "bufferView" : 2,
            "componentType" : 5126,
            "count" : 25375,
            "type" : "VEC2"
        },
        {
            "bufferView" : 3,
            "componentType" : 5123,
            "count" : 25375,
            "type" : "VEC4"
        },
        {
            "bufferView" : 4,
            "componentType" : 5126,
            "count" : 25375,
            "type" : "VEC4"
        },
        {
            "bufferView" : 5,
            "componentType" : 5123,
            "count" : 96552,
            "type" : "SCALAR"
        },
        {
            "bufferView" : 6,
            "componentType" : 5126,
            "count" : 25375,
            "max" : [
                4.76837158203125e-07,
                0.05135059356689453,
                2.505584239959717
            ],
            "min" : [
                -4.76837158203125e-07,
                -1.7439881563186646,
                -0.6072077751159668
            ],
            "type" : "VEC3"
        },
        {
            "bufferView" : 7,
            "componentType" : 5126,
            "count" : 25375,
            "type" : "VEC3"
        },
        {
            "bufferView" : 8,
            "componentType" : 5126,
            "count" : 25375,
            "max" : [
                4.76837158203125e-07,
                9.5367431640625e-07,
                9.5367431640625e-07
            ],
            "min" : [
                -4.76837158203125e-07,
                -9.5367431640625e-07,
                -0.7640523910522461
            ],
            "type" : "VEC3"
        },
        {
            "bufferView" : 9,
            "componentType" : 5126,
            "count" : 25375,
            "type" : "VEC3"
        },
        {
            "bufferView" : 10,
            "componentType" : 5126,
            "count" : 100,
            "max" : [
                4.94247579574585,
                3.2033214569091797,
                7.99743127822876
            ],
            "min" : [
                -5.035958766937256,
                1.1527307606229442e-06,
                -2.1301863193511963
            ],
            "type" : "VEC3"
        },
        {
            "bufferView" : 11,
            "componentType" : 5126,
            "count" : 100,
            "type" : "VEC3"
        },
        {
            "bufferView" : 12,
            "componentType" : 5126,
            "count" : 100,
            "type" : "VEC2"
        },
        {
            "bufferView" : 13,
            "componentType" : 5123,
            "count" : 100,
            "type" : "VEC4"
        },
        {
            "bufferView" : 14,
            "componentType" : 5126,
            "count" : 100,
            "type" : "VEC4"
        },
        {
            "bufferView" : 15,
            "componentType" : 5123,
            "count" : 282,
            "type" : "SCALAR"
        },
        {
            "bufferView" : 16,
            "componentType" : 5126,
            "count" : 100,
            "max" : [
                0.4497358798980713,
                4.565989684124361e-07,
                1.5512499809265137
            ],
            "min" : [
                -0.4497358798980713,
                -4.76837158203125e-07,
                -2.384185791015625e-07
            ],
            "type" : "VEC3"
        },
        {
            "bufferView" : 17,
            "componentType" : 5126,
            "count" : 100,
            "type" : "VEC3"
        },
        {
            "bufferView" : 18,
            "componentType" : 5126,
            "count" : 100,
            "max" : [
                4.76837158203125e-07,
                0,
                3.5762786865234375e-07
            ],
            "min" : [
                -4.76837158203125e-07,
                -4.76837158203125e-07,
                -0.0461270809173584
            ],
            "type" : "VEC3"
        },
        {
            "bufferView" : 19,
            "componentType" : 5126,
            "count" : 100,
            "type" : "VEC3"
        }
    ],
    "bufferViews" : [
        {
            "buffer" : 0,
            "byteLength" : 304500,
            "byteOffset" : 0
        },
        {
            "buffer" : 0,
            "byteLength" : 304500,
            "byteOffset" : 304500
        },
        {
            "buffer" : 0,
            "byteLength" : 203000,
            "byteOffset" : 609000
        },
        {
            "buffer" : 0,
            "byteLength" : 203000,
            "byteOffset" : 812000
        },
        {
            "buffer" : 0,
            "byteLength" : 406000,
            "byteOffset" : 1015000
        },
        {
            "buffer" : 0,
            "byteLength" : 193104,
            "byteOffset" : 1421000
        },
        {
            "buffer" : 0,
            "byteLength" : 304500,
            "byteOffset" : 1614104
        },
        {
            "buffer" : 0,
            "byteLength" : 304500,
            "byteOffset" : 1918604
        },
        {
            "buffer" : 0,
            "byteLength" : 304500,
            "byteOffset" : 2223104
        },
        {
            "buffer" : 0,
            "byteLength" : 304500,
            "byteOffset" : 2527604
        },
        {
            "buffer" : 0,
            "byteLength" : 1200,
            "byteOffset" : 2832104
        },
        {
            "buffer" : 0,
            "byteLength" : 1200,
            "byteOffset" : 2833304
        },
        {
            "buffer" : 0,
            "byteLength" : 800,
            "byteOffset" : 2834504
        },
        {
            "buffer" : 0,
            "byteLength" : 800,
            "byteOffset" : 2835304
        },
        {
            "buffer" : 0,
            "byteLength" : 1600,
            "byteOffset" : 2836104
        },
        {
            "buffer" : 0,
            "byteLength" : 564,
            "byteOffset" : 2837704
        },
        {
            "buffer" : 0,
            "byteLength" : 1200,
            "byteOffset" : 2838268
        },
        {
            "buffer" : 0,
            "byteLength" : 1200,
            "byteOffset" : 2839468
        },
        {
            "buffer" : 0,
            "byteLength" : 1200,
            "byteOffset" : 2840668
        },
        {
            "buffer" : 0,
            "byteLength" : 1200,
            "byteOffset" : 2841868
        }
    ],
    "buffers" : [
        {
            "byteLength" : 2843068,
            "uri" : "data:application/octet-stream;base64,"
        }
    ]
}
