{
    "asset" : {
        "generator" : "Khronos glTF Blender I/O v1.0.5",
        "version" : "2.0"
    },
    "scene" : 0,
    "scenes" : [
        {
            "name" : "Scene",
            "nodes" : [
                23
            ]
        }
    ],
    "nodes" : [
        {
            "mesh" : 0,
            "name" : "Win Alenka.004",
            "rotation" : [
                0.7071068286895752,
                0,
                0,
                0.7071067094802856
            ],
            "scale" : [
                0.07817939668893814,
                0.07817939668893814,
                0.07817939668893814
            ],
            "translation" : [
                0,
                0.15670138597488403,
                0.38669854402542114
            ]
        },
        {
            "name" : "Bone.001",
            "rotation" : [
                0.6358833312988281,
                -9.200455224345205e-07,
                -7.580367764603579e-07,
                0.7717851996421814
            ],
            "scale" : [
                1,
                1,
                0.9999999403953552
            ],
            "translation" : [
                0.15938517451286316,
                0.7488037347793579,
                0.4464617967605591
            ]
        },
        {
            "name" : "Bone.002",
            "rotation" : [
                0.6358833909034729,
                -1.1040548315577325e-06,
                -9.096443704947887e-07,
                0.7717852592468262
            ],
            "translation" : [
                0.2914290428161621,
                0.7502495050430298,
                0.3532421588897705
            ]
        },
        {
            "name" : "Bone.003",
            "rotation" : [
                0.6358833909034729,
                -1.2880641406809445e-06,
                -1.0612519645292195e-06,
                0.7717852592468262
            ],
            "translation" : [
                0.43058300018310547,
                0.6442872285842896,
                0.3163825273513794
            ]
        },
        {
            "name" : "Bone.004",
            "rotation" : [
                0.6358833909034729,
                -1.288063913307269e-06,
                -1.0612518508423818e-06,
                0.7717851400375366
            ],
            "translation" : [
                0.15024366974830627,
                0.5410597324371338,
                0.36436301469802856
            ]
        },
        {
            "name" : "Bone.005",
            "rotation" : [
                0.6358832716941833,
                -1.380068624712294e-06,
                -1.1370553920642124e-06,
                0.7717852592468262
            ],
            "scale" : [
                1,
                0.9999999403953552,
                1
            ],
            "translation" : [
                0.269083172082901,
                0.5957666635513306,
                0.3842693567276001
            ]
        },
        {
            "name" : "Bone.006",
            "rotation" : [
                0.6358832120895386,
                -1.4720731087436434e-06,
                -1.2128585922255297e-06,
                0.771785318851471
            ],
            "scale" : [
                1,
                0.9999998807907104,
                0.9999999403953552
            ],
            "translation" : [
                0.3899541199207306,
                0.5195426344871521,
                0.32383280992507935
            ]
        },
        {
            "name" : "Bone.007",
            "rotation" : [
                0.6358832716941833,
                -1.5640777064618305e-06,
                -1.2886624745078734e-06,
                0.7717852592468262
            ],
            "translation" : [
                0.27111461758613586,
                0.49468404054641724,
                0.40598729252815247
            ]
        },
        {
            "name" : "Bone.008",
            "rotation" : [
                0.6358834505081177,
                -1.6560819631195045e-06,
                -1.364466356790217e-06,
                0.7717851400375366
            ],
            "scale" : [
                1,
                0.9999999403953552,
                0.9999998807907104
            ],
            "translation" : [
                0.07516155391931534,
                0.20593175292015076,
                0.6808024644851685
            ]
        },
        {
            "name" : "Bone.009",
            "rotation" : [
                0.635883092880249,
                -1.748087242958718e-06,
                -1.4402694432646967e-06,
                0.7717853784561157
            ],
            "scale" : [
                1,
                0.9999999403953552,
                0.9999999403953552
            ],
            "translation" : [
                0.19509802758693695,
                0.07520389556884766,
                0.6343745589256287
            ]
        },
        {
            "name" : "Bone.010",
            "rotation" : [
                -0.114845409989357,
                -1.777578518158407e-06,
                2.7658890644488565e-07,
                0.9933834075927734
            ],
            "scale" : [
                1,
                1,
                0.9999999403953552
            ],
            "translation" : [
                0.0795493796467781,
                0.520297110080719,
                -0.13828516006469727
            ]
        },
        {
            "name" : "Bone.021",
            "rotation" : [
                -0.11484556645154953,
                -1.7775689684640383e-06,
                2.7658816748044046e-07,
                0.9933833479881287
            ],
            "translation" : [
                -0.08059351146221161,
                0.5202971696853638,
                -0.1382850557565689
            ]
        },
        {
            "children" : [
                10,
                11
            ],
            "name" : "Bone.011",
            "rotation" : [
                0.802192211151123,
                -2.1352713019950897e-07,
                -2.86885892819555e-07,
                0.5970658659934998
            ],
            "scale" : [
                1,
                1,
                0.9999999403953552
            ],
            "translation" : [
                -5.762631161456002e-17,
                -0.10457051545381546,
                0.19223321974277496
            ]
        },
        {
            "name" : "Bone.012",
            "rotation" : [
                0.6358833312988281,
                -1.1040547178708948e-06,
                -9.096441999645322e-07,
                0.7717851996421814
            ],
            "scale" : [
                1,
                1,
                0.9999999403953552
            ],
            "translation" : [
                -0.16042909026145935,
                0.7488037347793579,
                0.4464617967605591
            ]
        },
        {
            "name" : "Bone.013",
            "rotation" : [
                0.6358833909034729,
                -1.2880641406809445e-06,
                -1.0612519645292195e-06,
                0.7717852592468262
            ],
            "translation" : [
                -0.2924729585647583,
                0.7502495050430298,
                0.3532421588897705
            ]
        },
        {
            "name" : "Bone.014",
            "rotation" : [
                0.6358833909034729,
                -1.4720733361173188e-06,
                -1.2128590469728806e-06,
                0.7717852592468262
            ],
            "translation" : [
                -0.43162691593170166,
                0.6442872285842896,
                0.3163825273513794
            ]
        },
        {
            "name" : "Bone.015",
            "rotation" : [
                0.6358833909034729,
                -1.4720729950568057e-06,
                -1.2128591606597183e-06,
                0.7717851400375366
            ],
            "translation" : [
                -0.15128758549690247,
                0.5410597324371338,
                0.36436301469802856
            ]
        },
        {
            "name" : "Bone.016",
            "rotation" : [
                0.6358832716941833,
                -1.5640773654013174e-06,
                -1.2886624745078734e-06,
                0.7717852592468262
            ],
            "scale" : [
                1,
                0.9999999403953552,
                1
            ],
            "translation" : [
                -0.2701270878314972,
                0.5957666635513306,
                0.3842693567276001
            ]
        },
        {
            "name" : "Bone.017",
            "rotation" : [
                0.6358832120895386,
                -1.6560824178668554e-06,
                -1.3644661294165417e-06,
                0.771785318851471
            ],
            "scale" : [
                1,
                0.9999998807907104,
                0.9999999403953552
            ],
            "translation" : [
                -0.3909980356693268,
                0.5195426344871521,
                0.32383280992507935
            ]
        },
        {
            "name" : "Bone.018",
            "rotation" : [
                0.6358832716941833,
                -1.748086788211367e-06,
                -1.4402698980120476e-06,
                0.7717852592468262
            ],
            "translation" : [
                -0.27215853333473206,
                0.49468404054641724,
                0.40598729252815247
            ]
        },
        {
            "name" : "Bone.019",
            "rotation" : [
                0.6358834505081177,
                -1.8400911585558788e-06,
                -1.5160737802943913e-06,
                0.7717851400375366
            ],
            "scale" : [
                1,
                0.9999999403953552,
                0.9999998807907104
            ],
            "translation" : [
                -0.07620546221733093,
                0.20593175292015076,
                0.6808024644851685
            ]
        },
        {
            "name" : "Bone.020",
            "rotation" : [
                0.635883092880249,
                -1.932096211021417e-06,
                -1.5918769804557087e-06,
                0.7717853784561157
            ],
            "scale" : [
                1,
                0.9999999403953552,
                0.9999999403953552
            ],
            "translation" : [
                -0.19614195823669434,
                0.07520389556884766,
                0.6343745589256287
            ]
        },
        {
            "children" : [
                1,
                2,
                3,
                4,
                5,
                6,
                7,
                8,
                9,
                12,
                13,
                14,
                15,
                16,
                17,
                18,
                19,
                20,
                21
            ],
            "name" : "Bone",
            "rotation" : [
                0.19837388396263123,
                0,
                0,
                0.9801264405250549
            ]
        },
        {
            "children" : [
                0,
                22
            ],
            "name" : "Armature",
            "scale" : [
                12.791093826293945,
                12.791093826293945,
                12.791093826293945
            ],
            "translation" : [
                0,
                -2.0043821334838867,
                -4.9462971687316895
            ]
        }
    ],
    "materials" : [
        {
            "doubleSided" : true,
            "name" : "head",
            "pbrMetallicRoughness" : {
                "baseColorFactor" : [
                    1,
                    1,
                    1,
                    1
                ],
                "metallicFactor" : 0,
                "roughnessFactor" : 0.5
            }
        }
    ],
    "meshes" : [
        {
            "extras" : {
                "targetNames" : [
                    "Armature"
                ]
            },
            "name" : "Win Alenka.004",
            "primitives" : [
                {
                    "attributes" : {
                        "POSITION" : 0,
                        "NORMAL" : 1,
                        "TEXCOORD_0" : 2,
                        "JOINTS_0" : 3,
                        "WEIGHTS_0" : 4
                    },
                    "indices" : 5,
                    "material" : 0,
                    "targets" : [
                        {
                            "POSITION" : 6,
                            "NORMAL" : 7
                        }
                    ]
                }
            ],
            "weights" : [
                0
            ]
        }
    ],
    "accessors" : [
        {
            "bufferView" : 0,
            "componentType" : 5126,
            "count" : 7580,
            "max" : [
                7.833766460418701,
                6.353999137878418,
                8.513498306274414
            ],
            "min" : [
                -7.754021644592285,
                -8.727205276489258,
                -12.512438774108887
            ],
            "type" : "VEC3"
        },
        {
            "bufferView" : 1,
            "componentType" : 5126,
            "count" : 7580,
            "type" : "VEC3"
        },
        {
            "bufferView" : 2,
            "componentType" : 5126,
            "count" : 7580,
            "type" : "VEC2"
        },
        {
            "bufferView" : 3,
            "componentType" : 5123,
            "count" : 7580,
            "type" : "VEC4"
        },
        {
            "bufferView" : 4,
            "componentType" : 5126,
            "count" : 7580,
            "type" : "VEC4"
        },
        {
            "bufferView" : 5,
            "componentType" : 5123,
            "count" : 61950,
            "type" : "SCALAR"
        },
        {
            "bufferView" : 6,
            "componentType" : 5126,
            "count" : 7580,
            "max" : [
                2.7027735710144043,
                2.2029292583465576,
                2.353184700012207
            ],
            "min" : [
                -1.8559436798095703,
                -1.5987954139709473,
                -1.8433964252471924
            ],
            "type" : "VEC3"
        },
        {
            "bufferView" : 7,
            "componentType" : 5126,
            "count" : 7580,
            "type" : "VEC3"
        }
    ],
    "bufferViews" : [
        {
            "buffer" : 0,
            "byteLength" : 90960,
            "byteOffset" : 0
        },
        {
            "buffer" : 0,
            "byteLength" : 90960,
            "byteOffset" : 90960
        },
        {
            "buffer" : 0,
            "byteLength" : 60640,
            "byteOffset" : 181920
        },
        {
            "buffer" : 0,
            "byteLength" : 60640,
            "byteOffset" : 242560
        },
        {
            "buffer" : 0,
            "byteLength" : 121280,
            "byteOffset" : 303200
        },
        {
            "buffer" : 0,
            "byteLength" : 123900,
            "byteOffset" : 424480
        },
        {
            "buffer" : 0,
            "byteLength" : 90960,
            "byteOffset" : 548380
        },
        {
            "buffer" : 0,
            "byteLength" : 90960,
            "byteOffset" : 639340
        }
    ],
    "buffers" : [
        {
            "byteLength" : 730300,
            "uri" : "data:application/octet-stream;base64,"
        }
    ]
}
